<mxfile host="app.diagrams.net" modified="2023-05-09T19:13:23.744Z" agent="Mozilla/5.0 (Windows NT 10.0; Win64; x64) AppleWebKit/537.36 (KHTML, like Gecko) Chrome/112.0.0.0 Safari/537.36" etag="w1Htx_thxgGq0HWsp6rQ" version="21.2.9" type="github">
  <diagram name="第 1 页" id="-tU2giaiC4PwmeR-Xja7">
    <mxGraphModel dx="2261" dy="788" grid="1" gridSize="10" guides="1" tooltips="1" connect="1" arrows="1" fold="1" page="1" pageScale="1" pageWidth="827" pageHeight="1169" math="1" shadow="0">
      <root>
        <mxCell id="0" />
        <mxCell id="1" parent="0" />
        <mxCell id="jwFDThHK3IruDM-AcIsD-4" value="" style="rounded=0;whiteSpace=wrap;html=1;fillColor=#f5f5f5;fontColor=#333333;strokeColor=#666666;" parent="1" vertex="1">
          <mxGeometry x="180" y="195" width="370" height="425" as="geometry" />
        </mxCell>
        <mxCell id="jwFDThHK3IruDM-AcIsD-5" value="" style="ellipse;whiteSpace=wrap;html=1;fillColor=#dae8fc;strokeColor=#6c8ebf;" parent="1" vertex="1">
          <mxGeometry x="290" y="210" width="230" height="120" as="geometry" />
        </mxCell>
        <mxCell id="jwFDThHK3IruDM-AcIsD-8" value="$$Owner_1$$" style="text;html=1;strokeColor=none;fillColor=none;align=center;verticalAlign=middle;whiteSpace=wrap;rounded=0;" parent="1" vertex="1">
          <mxGeometry x="220" y="255" width="60" height="30" as="geometry" />
        </mxCell>
        <mxCell id="jwFDThHK3IruDM-AcIsD-9" value="$$Owner_2$$" style="text;html=1;strokeColor=none;fillColor=none;align=center;verticalAlign=middle;whiteSpace=wrap;rounded=0;" parent="1" vertex="1">
          <mxGeometry x="220" y="385" width="60" height="30" as="geometry" />
        </mxCell>
        <mxCell id="jwFDThHK3IruDM-AcIsD-10" value="$$Owner_3$$" style="text;html=1;strokeColor=none;fillColor=none;align=center;verticalAlign=middle;whiteSpace=wrap;rounded=0;" parent="1" vertex="1">
          <mxGeometry x="220" y="515" width="60" height="30" as="geometry" />
        </mxCell>
        <mxCell id="jwFDThHK3IruDM-AcIsD-11" value="" style="ellipse;whiteSpace=wrap;html=1;fillColor=#fff2cc;strokeColor=#d6b656;" parent="1" vertex="1">
          <mxGeometry x="371" y="230" width="140" height="80" as="geometry" />
        </mxCell>
        <mxCell id="jwFDThHK3IruDM-AcIsD-14" value="$$object(L_1)$$" style="text;html=1;strokeColor=none;fillColor=none;align=center;verticalAlign=middle;whiteSpace=wrap;rounded=0;" parent="1" vertex="1">
          <mxGeometry x="290" y="240" width="100" height="30" as="geometry" />
        </mxCell>
        <mxCell id="jwFDThHK3IruDM-AcIsD-15" value="" style="ellipse;whiteSpace=wrap;html=1;fillColor=#dae8fc;strokeColor=#6c8ebf;" parent="1" vertex="1">
          <mxGeometry x="290" y="340" width="230" height="120" as="geometry" />
        </mxCell>
        <mxCell id="jwFDThHK3IruDM-AcIsD-16" value="" style="ellipse;whiteSpace=wrap;html=1;fillColor=#fff2cc;strokeColor=#d6b656;" parent="1" vertex="1">
          <mxGeometry x="371" y="360" width="140" height="80" as="geometry" />
        </mxCell>
        <mxCell id="jwFDThHK3IruDM-AcIsD-17" value="" style="ellipse;whiteSpace=wrap;html=1;fillColor=#dae8fc;strokeColor=#6c8ebf;" parent="1" vertex="1">
          <mxGeometry x="290" y="470" width="230" height="120" as="geometry" />
        </mxCell>
        <mxCell id="jwFDThHK3IruDM-AcIsD-18" value="" style="ellipse;whiteSpace=wrap;html=1;fillColor=#fff2cc;strokeColor=#d6b656;" parent="1" vertex="1">
          <mxGeometry x="371" y="490" width="140" height="80" as="geometry" />
        </mxCell>
        <mxCell id="jwFDThHK3IruDM-AcIsD-19" value="$$object(L_2)$$" style="text;html=1;strokeColor=none;fillColor=none;align=center;verticalAlign=middle;whiteSpace=wrap;rounded=0;" parent="1" vertex="1">
          <mxGeometry x="402" y="255" width="100" height="30" as="geometry" />
        </mxCell>
        <mxCell id="jwFDThHK3IruDM-AcIsD-20" value="$$object(L_1)$$" style="text;html=1;strokeColor=none;fillColor=none;align=center;verticalAlign=middle;whiteSpace=wrap;rounded=0;" parent="1" vertex="1">
          <mxGeometry x="290" y="370" width="100" height="30" as="geometry" />
        </mxCell>
        <mxCell id="jwFDThHK3IruDM-AcIsD-21" value="$$object(L_1)$$" style="text;html=1;strokeColor=none;fillColor=none;align=center;verticalAlign=middle;whiteSpace=wrap;rounded=0;" parent="1" vertex="1">
          <mxGeometry x="290" y="500" width="100" height="30" as="geometry" />
        </mxCell>
        <mxCell id="jwFDThHK3IruDM-AcIsD-22" value="$$object(L_2)$$" style="text;html=1;strokeColor=none;fillColor=none;align=center;verticalAlign=middle;whiteSpace=wrap;rounded=0;" parent="1" vertex="1">
          <mxGeometry x="400" y="385" width="100" height="30" as="geometry" />
        </mxCell>
        <mxCell id="jwFDThHK3IruDM-AcIsD-23" value="$$object(L_2)$$" style="text;html=1;strokeColor=none;fillColor=none;align=center;verticalAlign=middle;whiteSpace=wrap;rounded=0;" parent="1" vertex="1">
          <mxGeometry x="400" y="515" width="100" height="30" as="geometry" />
        </mxCell>
        <mxCell id="jwFDThHK3IruDM-AcIsD-25" value="" style="rounded=0;whiteSpace=wrap;html=1;fillColor=#f5f5f5;fontColor=#333333;strokeColor=#666666;" parent="1" vertex="1">
          <mxGeometry x="-80" y="195" width="220" height="425" as="geometry" />
        </mxCell>
        <mxCell id="jwFDThHK3IruDM-AcIsD-27" value="" style="rounded=1;whiteSpace=wrap;html=1;fillColor=#dae8fc;strokeColor=#6c8ebf;" parent="1" vertex="1">
          <mxGeometry x="-70" y="230" width="80" height="365" as="geometry" />
        </mxCell>
        <mxCell id="jwFDThHK3IruDM-AcIsD-26" value="$$Owner_1$$" style="text;html=1;strokeColor=none;fillColor=none;align=center;verticalAlign=middle;whiteSpace=wrap;rounded=0;" parent="1" vertex="1">
          <mxGeometry x="-60" y="255" width="60" height="30" as="geometry" />
        </mxCell>
        <mxCell id="jwFDThHK3IruDM-AcIsD-28" value="$$Owner_2$$" style="text;html=1;strokeColor=none;fillColor=none;align=center;verticalAlign=middle;whiteSpace=wrap;rounded=0;" parent="1" vertex="1">
          <mxGeometry x="-60" y="385" width="60" height="30" as="geometry" />
        </mxCell>
        <mxCell id="jwFDThHK3IruDM-AcIsD-29" value="$$Owner_3$$" style="text;html=1;strokeColor=none;fillColor=none;align=center;verticalAlign=middle;whiteSpace=wrap;rounded=0;" parent="1" vertex="1">
          <mxGeometry x="-60" y="515" width="60" height="30" as="geometry" />
        </mxCell>
        <mxCell id="jwFDThHK3IruDM-AcIsD-30" value="" style="rounded=1;whiteSpace=wrap;html=1;fillColor=#dae8fc;strokeColor=#6c8ebf;" parent="1" vertex="1">
          <mxGeometry x="50" y="230" width="80" height="365" as="geometry" />
        </mxCell>
        <mxCell id="jwFDThHK3IruDM-AcIsD-31" value="$$Owner_1$$" style="text;html=1;strokeColor=none;fillColor=none;align=center;verticalAlign=middle;whiteSpace=wrap;rounded=0;" parent="1" vertex="1">
          <mxGeometry x="60" y="255" width="60" height="30" as="geometry" />
        </mxCell>
        <mxCell id="jwFDThHK3IruDM-AcIsD-32" value="$$Owner_2$$" style="text;html=1;strokeColor=none;fillColor=none;align=center;verticalAlign=middle;whiteSpace=wrap;rounded=0;" parent="1" vertex="1">
          <mxGeometry x="60" y="385" width="60" height="30" as="geometry" />
        </mxCell>
        <mxCell id="jwFDThHK3IruDM-AcIsD-33" value="$$Owner_3$$" style="text;html=1;strokeColor=none;fillColor=none;align=center;verticalAlign=middle;whiteSpace=wrap;rounded=0;" parent="1" vertex="1">
          <mxGeometry x="60" y="515" width="60" height="30" as="geometry" />
        </mxCell>
        <mxCell id="jwFDThHK3IruDM-AcIsD-34" value="" style="endArrow=classic;startArrow=classic;html=1;rounded=0;" parent="1" edge="1">
          <mxGeometry width="50" height="50" relative="1" as="geometry">
            <mxPoint y="269.31" as="sourcePoint" />
            <mxPoint x="60" y="269.31" as="targetPoint" />
          </mxGeometry>
        </mxCell>
        <mxCell id="jwFDThHK3IruDM-AcIsD-35" value="" style="endArrow=classic;startArrow=classic;html=1;rounded=0;" parent="1" edge="1">
          <mxGeometry width="50" height="50" relative="1" as="geometry">
            <mxPoint y="400" as="sourcePoint" />
            <mxPoint x="60" y="400" as="targetPoint" />
          </mxGeometry>
        </mxCell>
        <mxCell id="jwFDThHK3IruDM-AcIsD-36" value="" style="endArrow=classic;startArrow=classic;html=1;rounded=0;" parent="1" edge="1">
          <mxGeometry width="50" height="50" relative="1" as="geometry">
            <mxPoint y="530" as="sourcePoint" />
            <mxPoint x="60" y="530" as="targetPoint" />
          </mxGeometry>
        </mxCell>
        <mxCell id="jwFDThHK3IruDM-AcIsD-37" value="$$L_1$$" style="text;html=1;strokeColor=none;fillColor=none;align=center;verticalAlign=middle;whiteSpace=wrap;rounded=0;" parent="1" vertex="1">
          <mxGeometry x="-60" y="200" width="60" height="30" as="geometry" />
        </mxCell>
        <mxCell id="jwFDThHK3IruDM-AcIsD-38" value="$$L_2$$" style="text;html=1;strokeColor=none;fillColor=none;align=center;verticalAlign=middle;whiteSpace=wrap;rounded=0;" parent="1" vertex="1">
          <mxGeometry x="60" y="200" width="60" height="30" as="geometry" />
        </mxCell>
        <mxCell id="6VYbyGudHbdaDRODDMFd-1" value="&lt;font style=&quot;font-size: 14px;&quot;&gt;$$L_1\subseteq L_2$$&lt;/font&gt;" style="text;html=1;strokeColor=none;fillColor=none;align=center;verticalAlign=middle;whiteSpace=wrap;rounded=0;" vertex="1" parent="1">
          <mxGeometry x="130" y="150" width="60" height="30" as="geometry" />
        </mxCell>
      </root>
    </mxGraphModel>
  </diagram>
</mxfile>
